<?xml version="1.0" encoding="iso-8859-1"?>
<!-- Generator: Adobe Illustrator 15.0.0, SVG Export Plug-In . SVG Version: 6.00 Build 0)  -->
<!DOCTYPE svg PUBLIC "-//W3C//DTD SVG 1.1//EN" "http://www.w3.org/Graphics/SVG/1.1/DTD/svg11.dtd">
<svg version="1.1" id="Capa_1" xmlns="http://www.w3.org/2000/svg" xmlns:xlink="http://www.w3.org/1999/xlink" x="0px" y="0px"
	 width="1172.547px" height="335px" viewBox="0 0 1172.547 335" style="enable-background:new 0 0 1172.547 335;"
	 xml:space="preserve">
<path style="fill:none;stroke:#ACB6C1;stroke-width:2;stroke-miterlimit:10;" d="M329.923,317.229
	c-11.034,12.019-27.579,18.183-44.615,14.891c-9.446-1.82-17.77-6.31-24.412-12.547c-5.881,1.168-12.072,1.253-18.345,0.03
	c-17.171-3.3-30.666-15.384-36.919-30.898c-0.301-0.065-0.602-0.091-0.878-0.15c-23.554-4.534-40.216-25.593-40.743-49.383
	c-5.994,1.246-12.339,1.368-18.744,0.13c-20.344-3.931-35.523-20.18-39.638-39.867c-8.019,3.04-16.928,3.976-25.965,2.229
	c-19.615-3.785-34.439-19.008-39.155-37.731c-23.917-7.412-39.213-32.347-34.774-58.194c4.002-23.233,22.675-39.8,44.432-41.507
	c9.247-28.499,37.608-46.278,67.216-40.572c3.994,0.772,7.862,1.938,11.507,3.458c5.31-8.3,15.097-12.953,25.238-11.004
	c2.763,0.537,5.36,1.532,7.696,2.89c13.165-11.689,31.202-17.329,49.737-13.756c20.295,3.919,36.365,17.96,44.191,36.122
	c11.284-5.955,24.519-8.247,38.014-5.639c24.218,4.686,42.432,23.766,47.769,47.072c0.853,0.11,1.706,0.263,2.545,0.426
	c32.548,6.265,54.241,38.566,48.465,72.114c-0.571,3.325-1.392,6.544-2.435,9.633c8.844,5.354,13.992,15.996,12.102,26.967
	c-1.218,7.088-5.154,12.96-10.495,16.68c9.51,14.673,13.771,32.965,10.567,51.605C396.095,296.119,364.446,320.478,329.923,317.229z
	"/>
<path style="fill:#80A8B8;" d="M180.194,39.744l15.037-12.214l6.049,7.896c2.07-0.83,4.21-1.445,6.34-1.814l1.04-9.922l19.188,2.457
	l-1.077,9.916c2.023,0.927,3.976,2.036,5.781,3.359l7.574-6.14l12.056,15.683l-7.552,6.15c0.823,2.141,1.434,4.319,1.845,6.552
	l9.623,1.214l-2.105,19.74l-9.635-1.247c-0.854,2.049-1.918,4.052-3.18,5.91l6.068,7.894l-15.036,12.208l-6.063-7.896
	c-2.073,0.839-4.202,1.449-6.332,1.811l-1.051,9.928l-19.164-2.47l1.062-9.902c-2.01-0.922-3.941-2.041-5.77-3.369l-7.579,6.165
	l-12.056-15.706l7.561-6.144c-0.835-2.126-1.445-4.328-1.852-6.55l-9.609-1.214l2.095-19.749l9.624,1.253
	c0.849-2.049,1.926-4.042,3.195-5.927L180.194,39.744z M199.011,79.397c6.521,8.469,18.367,9.985,26.512,3.397
	c8.111-6.601,9.407-18.8,2.897-27.276c-6.531-8.464-18.371-9.989-26.474-3.398C193.807,58.728,192.494,70.927,199.011,79.397"/>
<path style="fill:#648EA4;" d="M59.191,71.741L83.11,55.355l8.081,12.521c3.227-1,6.469-1.628,9.691-1.944l2.768-14.666
	l28.357,6.016l-2.797,14.666c2.905,1.589,5.65,3.507,8.184,5.721l12.075-8.234l16.079,24.872l-12.038,8.253
	c0.988,3.296,1.628,6.643,1.957,10.016l14.216,2.989l-5.538,29.224l-14.234-3.031c-1.528,2.968-3.366,5.805-5.482,8.442
	l8.111,12.518l-23.953,16.381l-8.078-12.521c-3.191,0.996-6.443,1.64-9.691,1.939l-2.763,14.672l-28.332-6.02l2.814-14.661
	c-2.907-1.611-5.656-3.521-8.229-5.724l-12.039,8.253l-16.097-24.892l12.041-8.254c-0.944-3.291-1.617-6.637-1.962-10.012
	l-14.243-2.987l5.572-29.222l14.227,3.032c1.506-2.957,3.355-5.792,5.46-8.453L59.191,71.741z M82.434,133.244
	c8.706,13.455,26.222,17.18,39.172,8.314c12.912-8.848,16.342-26.914,7.647-40.353c-8.701-13.455-26.184-17.173-39.128-8.317
	C77.177,101.758,73.735,119.808,82.434,133.244"/>
<path style="fill:#94BCCC;" d="M277.761,55.307l13.168-4.627l2.122,6.636c1.607-0.071,3.18,0.014,4.729,0.264l3.152-6.346
	l12.32,6.077l-3.178,6.315c1.129,1.072,2.165,2.269,3.048,3.56l6.639-2.322l4.241,13.192l-6.618,2.327
	c0.022,1.604-0.106,3.209-0.375,4.781l6.179,3.023l-6.305,12.604l-6.189-3.045c-1.079,1.168-2.291,2.239-3.604,3.181l2.136,6.643
	l-13.162,4.61l-2.14-6.629c-1.593,0.078-3.182-0.009-4.697-0.255l-3.179,6.332l-12.312-6.06l3.174-6.333
	c-1.14-1.072-2.158-2.26-3.063-3.568l-6.62,2.321l-4.252-13.167l6.638-2.336c-0.045-1.613,0.089-3.204,0.367-4.783l-6.185-3.024
	l6.313-12.606l6.189,3.047c1.058-1.172,2.282-2.236,3.591-3.181L277.761,55.307z M280.626,85.951
	c2.299,7.125,9.906,10.867,17.011,8.368c7.114-2.494,11.017-10.282,8.726-17.4c-2.302-7.132-9.921-10.88-17.006-8.383
	C282.232,71.032,278.322,78.824,280.626,85.951"/>
<path style="fill:#D17B5A;" d="M222.366,151.785l33.367-22.841l11.287,17.435c4.412-1.373,8.925-2.281,13.459-2.694l3.889-20.413
	l39.474,8.358l-3.936,20.438c4.069,2.225,7.863,4.888,11.47,7.937l16.744-11.475l22.432,34.703l-16.772,11.465
	c1.352,4.59,2.291,9.251,2.72,13.945l19.844,4.19l-7.795,40.7l-19.799-4.212c-2.088,4.125-4.658,8.083-7.588,11.73l11.263,17.434
	l-33.38,22.829l-11.247-17.399c-4.421,1.364-8.936,2.251-13.455,2.679l-3.895,20.43l-39.438-8.39l3.871-20.412
	c-4.036-2.236-7.873-4.908-11.449-7.949l-16.752,11.455l-22.433-34.673l16.739-11.489c-1.344-4.576-2.218-9.223-2.676-13.927
	l-19.806-4.211l7.722-40.683l19.826,4.194c2.091-4.106,4.663-8.054,7.578-11.712L222.366,151.785z M254.772,237.478
	c12.138,18.738,36.546,23.873,54.553,11.567c18.033-12.336,22.813-37.511,10.72-56.23c-12.152-18.729-36.517-23.907-54.568-11.565
	C247.491,193.562,242.65,218.752,254.772,237.478"/>
<g>
	<path style="fill:#4C5766;" d="M514.715,83.529c0,9.522-2.976,16.805-8.927,21.848c-5.951,5.044-14.414,7.565-25.388,7.565h-8.049
		v31.47h-18.761V55.932h28.262c10.732,0,18.892,2.31,24.48,6.93C511.921,67.482,514.715,74.371,514.715,83.529z M472.352,97.569
		h6.173c5.77,0,10.086-1.14,12.951-3.419c2.864-2.279,4.297-5.598,4.297-9.955c0-4.397-1.201-7.646-3.601-9.744
		c-2.401-2.098-6.164-3.147-11.287-3.147h-8.533V97.569z"/>
	<path style="fill:#4C5766;" d="M550.179,110.46v33.951h-18.761V55.932h25.781c12.022,0,20.919,2.189,26.688,6.566
		c5.77,4.378,8.654,11.025,8.654,19.941c0,5.205-1.433,9.834-4.297,13.889c-2.865,4.055-6.92,7.232-12.164,9.532
		c13.314,19.891,21.988,32.741,26.023,38.551h-20.819l-21.121-33.951H550.179z M550.179,95.209h6.052
		c5.931,0,10.309-0.988,13.133-2.965c2.823-1.976,4.236-5.083,4.236-9.32c0-4.196-1.443-7.181-4.327-8.957
		c-2.885-1.775-7.354-2.663-13.405-2.663h-5.688V95.209z"/>
	<path style="fill:#4C5766;" d="M693.549,100.051c0,14.646-3.631,25.902-10.894,33.77c-7.262,7.868-17.672,11.801-31.228,11.801
		c-13.557,0-23.966-3.934-31.229-11.801c-7.262-7.868-10.893-19.164-10.893-33.891c0-14.726,3.641-25.972,10.923-33.739
		c7.282-7.767,17.723-11.65,31.319-11.65c13.596,0,23.996,3.914,31.197,11.741C689.948,74.109,693.549,85.365,693.549,100.051z
		 M628.975,100.051c0,9.885,1.876,17.329,5.629,22.332c3.752,5.003,9.359,7.504,16.824,7.504c14.968,0,22.452-9.945,22.452-29.836
		c0-19.931-7.443-29.896-22.331-29.896c-7.465,0-13.093,2.511-16.885,7.535C630.871,82.712,628.975,90.166,628.975,100.051z"/>
	<path style="fill:#4C5766;" d="M745.475,94.725h35.102v45.874c-5.689,1.856-11.045,3.157-16.068,3.903s-10.157,1.12-15.402,1.12
		c-13.354,0-23.552-3.923-30.592-11.771c-7.041-7.847-10.561-19.114-10.561-33.8c0-14.283,4.085-25.418,12.255-33.407
		c8.17-7.988,19.496-11.983,33.981-11.983c9.078,0,17.832,1.816,26.266,5.447l-6.234,15.009c-6.455-3.228-13.173-4.841-20.152-4.841
		c-8.109,0-14.605,2.723-19.487,8.17s-7.322,12.77-7.322,21.968c0,9.603,1.967,16.936,5.9,21.999
		c3.934,5.063,9.652,7.595,17.157,7.595c3.913,0,7.887-0.403,11.922-1.21v-18.458h-16.764V94.725z"/>
	<path style="fill:#4C5766;" d="M820.396,110.46v33.951h-18.761V55.932h25.781c12.022,0,20.919,2.189,26.688,6.566
		c5.77,4.378,8.654,11.025,8.654,19.941c0,5.205-1.433,9.834-4.297,13.889c-2.865,4.055-6.92,7.232-12.164,9.532
		c13.314,19.891,21.988,32.741,26.023,38.551h-20.819l-21.121-33.951H820.396z M820.396,95.209h6.052
		c5.931,0,10.309-0.988,13.133-2.965c2.823-1.976,4.236-5.083,4.236-9.32c0-4.196-1.443-7.181-4.327-8.957
		c-2.885-1.775-7.354-2.663-13.405-2.663h-5.688V95.209z"/>
	<path style="fill:#4C5766;" d="M937.622,144.411l-6.415-21.061H898.95l-6.414,21.061h-20.214l31.228-88.842h22.938l31.349,88.842
		H937.622z M926.729,107.616c-5.931-19.083-9.27-29.876-10.016-32.378c-0.747-2.501-1.281-4.479-1.604-5.931
		c-1.331,5.165-5.145,17.934-11.438,38.309H926.729z"/>
	<path style="fill:#4C5766;" d="M1006.433,144.411L985.13,74.996h-0.545c0.767,14.122,1.15,23.542,1.15,28.263v41.153h-16.764
		V55.932h25.539l20.939,67.661h0.363l22.21-67.661h25.539v88.479h-17.489v-41.879c0-1.976,0.03-4.256,0.091-6.838
		c0.06-2.582,0.332-9.441,0.816-20.577h-0.545l-22.815,69.294H1006.433z"/>
	<path style="fill:#4C5766;" d="M1166.143,100.051c0,14.646-3.631,25.902-10.894,33.77c-7.262,7.868-17.672,11.801-31.228,11.801
		c-13.557,0-23.966-3.934-31.229-11.801c-7.262-7.868-10.893-19.164-10.893-33.891c0-14.726,3.641-25.972,10.923-33.739
		c7.282-7.767,17.723-11.65,31.319-11.65c13.596,0,23.996,3.914,31.197,11.741C1162.542,74.109,1166.143,85.365,1166.143,100.051z
		 M1101.568,100.051c0,9.885,1.876,17.329,5.629,22.332c3.752,5.003,9.359,7.504,16.824,7.504c14.968,0,22.452-9.945,22.452-29.836
		c0-19.931-7.443-29.896-22.331-29.896c-7.465,0-13.093,2.511-16.885,7.535C1103.465,82.712,1101.568,90.166,1101.568,100.051z"/>
</g>
<g>
	<path style="fill:#ACACAC;" d="M510.998,277.633h-57.39V174.684h57.39v10.633h-45.419v33.166h42.673v10.563h-42.673v37.884h45.419
		V277.633z"/>
	<path style="fill:#ACACAC;" d="M545.783,234.82v42.813h-11.971V174.684h28.237c12.628,0,21.958,2.418,27.99,7.253
		c6.032,4.835,9.049,12.111,9.049,21.829c0,13.614-6.9,22.815-20.702,27.603l27.955,46.264h-14.153l-24.928-42.813H545.783z
		 M545.783,224.539h16.407c8.45,0,14.646-1.678,18.59-5.035c3.943-3.355,5.915-8.391,5.915-15.104
		c0-6.806-2.007-11.712-6.021-14.717c-4.014-3.003-10.457-4.507-19.329-4.507h-15.563V224.539z"/>
	<path style="fill:#ACACAC;" d="M668.238,223.694h34.997v50.066c-5.446,1.737-10.985,3.052-16.618,3.943
		c-5.634,0.891-12.159,1.338-19.576,1.338c-15.586,0-27.721-4.635-36.405-13.907c-8.686-9.271-13.027-22.263-13.027-38.976
		c0-10.703,2.148-20.08,6.443-28.131c4.296-8.05,10.48-14.2,18.555-18.449c8.074-4.249,17.534-6.373,28.378-6.373
		c10.985,0,21.219,2.019,30.701,6.056l-4.647,10.563c-9.295-3.943-18.237-5.915-26.828-5.915c-12.534,0-22.322,3.732-29.364,11.196
		c-7.041,7.464-10.563,17.815-10.563,31.053c0,13.896,3.392,24.435,10.176,31.617c6.783,7.183,16.747,10.774,29.892,10.774
		c7.135,0,14.106-0.821,20.914-2.465v-31.688h-23.026V223.694z"/>
	<path style="fill:#ACACAC;" d="M817.31,226.018c0,16.478-4.166,29.434-12.498,38.87c-8.334,9.436-19.917,14.154-34.751,14.154
		c-15.164,0-26.864-4.635-35.103-13.907c-8.238-9.271-12.358-22.357-12.358-39.257c0-16.759,4.131-29.751,12.394-38.976
		c8.262-9.225,19.998-13.837,35.208-13.837c14.788,0,26.336,4.695,34.646,14.083C813.155,196.537,817.31,209.494,817.31,226.018z
		 M735.274,226.018c0,13.942,2.969,24.517,8.908,31.723c5.938,7.207,14.564,10.809,25.878,10.809
		c11.407,0,20.021-3.591,25.843-10.774c5.82-7.183,8.731-17.768,8.731-31.758c0-13.848-2.898-24.352-8.696-31.511
		c-5.798-7.158-14.377-10.739-25.737-10.739c-11.407,0-20.08,3.604-26.019,10.809C738.243,201.783,735.274,212.263,735.274,226.018z
		"/>
	<path style="fill:#ACACAC;" d="M935.82,250.241c0,9.061-3.286,16.125-9.858,21.195c-6.572,5.07-15.491,7.605-26.758,7.605
		c-12.206,0-21.595-1.572-28.167-4.718v-11.548c4.226,1.785,8.825,3.193,13.802,4.225c4.976,1.033,9.904,1.549,14.787,1.549
		c7.98,0,13.989-1.514,18.027-4.542c4.036-3.028,6.056-7.241,6.056-12.64c0-3.567-0.717-6.49-2.147-8.767
		c-1.433-2.276-3.827-4.377-7.183-6.302c-3.357-1.924-8.462-4.107-15.315-6.549c-9.577-3.426-16.42-7.487-20.526-12.182
		c-4.108-4.693-6.162-10.82-6.162-18.378c0-7.933,2.98-14.247,8.943-18.942c5.961-4.694,13.848-7.042,23.66-7.042
		c10.233,0,19.646,1.878,28.236,5.633l-3.731,10.422c-8.498-3.567-16.76-5.352-24.787-5.352c-6.337,0-11.291,1.362-14.857,4.084
		c-3.568,2.723-5.352,6.502-5.352,11.337c0,3.568,0.656,6.491,1.972,8.767c1.313,2.277,3.531,4.366,6.654,6.267
		c3.121,1.901,7.897,4.002,14.329,6.302c10.797,3.85,18.226,7.981,22.287,12.393C933.789,237.472,935.82,243.199,935.82,250.241z"/>
	<path style="fill:#ACACAC;" d="M1034.615,174.684v66.614c0,11.736-3.545,20.961-10.633,27.674
		c-7.089,6.714-16.83,10.069-29.223,10.069c-12.394,0-21.982-3.38-28.766-10.14c-6.784-6.76-10.175-16.055-10.175-27.885v-66.332
		h11.971v67.177c0,8.591,2.347,15.187,7.042,19.787c4.693,4.601,11.594,6.901,20.702,6.901c8.685,0,15.374-2.312,20.068-6.936
		c4.694-4.624,7.042-11.255,7.042-19.893v-67.036H1034.615z"/>
	<path style="fill:#ACACAC;" d="M1107.425,277.633l-34.927-91.26h-0.563c0.656,7.23,0.985,15.821,0.985,25.772v65.487h-11.056
		V174.684h18.027l32.603,84.922h0.563l32.884-84.922h17.887v102.949h-11.972V211.3c0-7.605,0.328-15.867,0.986-24.786h-0.563
		l-35.208,91.119H1107.425z"/>
</g>
</svg>
